# xmcd
#
# Track frame offsets:
#	150
#	23890
#	38805
#
# Disc length: 872 seconds
#
# Revision: 2
# Processed by: cddbd v1.5.2PL0 Copyright (c) Steve Scherf et al.
# Submitted via: dBpowerAMP V4.0
#
DISCID=1b036603
DTITLE=Fate - Freedom - Promo-CD-Single
DYEAR=1995
DGENRE=Hard Rock
TTITLE0=Freedom
TTITLE1=You´re the best (Money can buy)
TTITLE2=Walk on Fire
EXTD=
EXTT0=
EXTT1=
EXTT2=
PLAYORDER=
